<?xml version="1.0" encoding="utf-8"?>
<svg width="246px" height="60px" viewBox="0 0 174.958 60" version="1.1" xmlns="http://www.w3.org/2000/svg">
  <title>pp_fc_hl</title>
  <desc>Created with Sketch.</desc>
  <defs>
    <path id="path-1" d="M0.0363636364,60 L245.244848,60 L245.244848,0.497575758 L0.0363636364,0.497575758 L0.0363636364,60 L0.0363636364,60 Z"/>
  </defs>
  <g>
    <path d="M 119.422 26.432 C 118.685 31.273 114.988 31.273 111.412 31.273 L 109.378 31.273 L 110.805 22.235 C 110.891 21.689 111.362 21.287 111.915 21.287 L 112.848 21.287 C 115.281 21.287 117.581 21.287 118.766 22.673 C 119.475 23.503 119.69 24.733 119.422 26.432 Z M 117.865 13.804 L 104.38 13.804 C 103.458 13.804 102.673 14.475 102.53 15.385 L 97.077 49.963 C 96.969 50.645 97.496 51.262 98.187 51.262 L 105.106 51.262 C 105.752 51.262 106.301 50.792 106.401 50.155 L 107.948 40.352 C 108.092 39.441 108.876 38.77 109.798 38.77 L 114.065 38.77 C 122.948 38.77 128.074 34.472 129.414 25.952 C 130.017 22.226 129.438 19.298 127.693 17.248 C 125.776 14.995 122.377 13.804 117.865 13.804 Z" id="Fill-1" stroke="none" stroke-width="1" fill-rule="evenodd" style="stroke-width: 1; fill: rgb(255, 255, 255);"/>
    <path d="M 149.172 38.845 C 148.548 42.535 145.619 45.012 141.884 45.012 C 140.01 45.012 138.512 44.41 137.547 43.269 C 136.592 42.138 136.233 40.527 136.536 38.733 C 137.117 35.077 140.093 32.52 143.772 32.52 C 145.605 32.52 147.095 33.128 148.077 34.279 C 149.066 35.439 149.455 37.061 149.172 38.845 Z M 158.17 26.278 L 151.713 26.278 C 151.16 26.278 150.689 26.679 150.603 27.227 L 150.319 29.032 L 149.868 28.378 C 148.469 26.348 145.353 25.67 142.241 25.67 C 135.107 25.67 129.013 31.076 127.827 38.658 C 127.21 42.441 128.086 46.055 130.23 48.578 C 132.201 50.896 135.013 51.861 138.363 51.861 C 144.113 51.861 147.302 48.167 147.302 48.167 L 147.015 49.962 C 146.906 50.644 147.433 51.262 148.125 51.262 L 153.939 51.262 C 154.861 51.262 155.646 50.592 155.79 49.681 L 159.281 27.576 C 159.388 26.894 158.861 26.278 158.17 26.278 Z" id="Fill-4" stroke="none" stroke-width="1" fill-rule="evenodd" style="stroke-width: 1; fill: rgb(255, 255, 255);"/>
    <g>
      <g>
        <path d="M 23.242 26.432 C 22.505 31.273 18.808 31.273 15.233 31.273 L 13.198 31.273 L 14.625 22.235 C 14.712 21.689 15.182 21.287 15.735 21.287 L 16.668 21.287 C 19.102 21.287 21.401 21.287 22.586 22.673 C 23.296 23.503 23.51 24.733 23.242 26.432 Z M 21.686 13.804 L 8.201 13.804 C 7.279 13.804 6.494 14.475 6.35 15.385 L 0.897 49.963 C 0.79 50.645 1.317 51.262 2.007 51.262 L 8.446 51.262 C 9.368 51.262 10.153 50.591 10.297 49.681 L 11.768 40.352 C 11.912 39.441 12.697 38.77 13.619 38.77 L 17.886 38.77 C 26.768 38.77 31.895 34.472 33.235 25.952 C 33.838 22.226 33.259 19.298 31.514 17.248 C 29.596 14.995 26.197 13.804 21.686 13.804 Z" id="Fill-2" stroke="none" stroke-width="1" fill-rule="evenodd" style="stroke-width: 1; fill: rgb(255, 255, 255);"/>
        <path d="M 52.992 38.845 C 52.368 42.535 49.439 45.012 45.704 45.012 C 43.831 45.012 42.332 44.41 41.368 43.269 C 40.413 42.138 40.053 40.527 40.356 38.733 C 40.938 35.077 43.913 32.52 47.592 32.52 C 49.426 32.52 50.915 33.128 51.898 34.279 C 52.887 35.439 53.275 37.061 52.992 38.845 Z M 61.991 26.278 L 55.534 26.278 C 54.981 26.278 54.51 26.679 54.424 27.227 L 54.139 29.032 L 53.688 28.378 C 52.29 26.348 49.173 25.67 46.061 25.67 C 38.927 25.67 32.833 31.076 31.647 38.658 C 31.03 42.441 31.906 46.055 34.051 48.578 C 36.021 50.896 38.833 51.861 42.184 51.861 C 47.934 51.861 51.123 48.167 51.123 48.167 L 50.835 49.962 C 50.727 50.644 51.254 51.262 51.945 51.262 L 57.76 51.262 C 58.682 51.262 59.467 50.592 59.61 49.681 L 63.101 27.576 C 63.209 26.894 62.682 26.278 61.991 26.278 Z" id="Fill-3" stroke="none" stroke-width="1" fill-rule="evenodd" style="stroke-width: 1; fill: rgb(255, 255, 255);"/>
      </g>
      <g id="Group-10" transform="matrix(1, 0, 0, 1, -70.999999, 0)" stroke="none" stroke-width="1" fill="none" fill-rule="evenodd">
        <mask id="mask-2" fill="white">
          <path d="M0.0363636364,60 L245.244848,60 L245.244848,0.497575758 L0.0363636364,0.497575758 L0.0363636364,60 L0.0363636364,60 Z"/>
        </mask>
        <g id="Clip-6"/>
        <path d="M167.381818,26.2775758 L160.891515,26.2775758 C160.270909,26.2775758 159.690303,26.5854545 159.341818,27.0987879 L150.389091,40.2848485 L146.594545,27.6139394 C146.357576,26.8212121 145.627879,26.2775758 144.8,26.2775758 L138.42,26.2775758 C137.649697,26.2775758 137.107273,27.0351515 137.355758,27.7642424 L144.502424,48.7412121 L137.780606,58.2260606 C137.252727,58.970303 137.785455,60 138.697576,60 L145.181818,60 C145.796364,60 146.371515,59.6987879 146.721818,59.1933333 L168.306061,28.0424242 C168.822424,27.2969697 168.289091,26.2775758 167.381818,26.2775758" id="Fill-5" mask="url(#mask-2)" style="fill: rgb(255, 255, 255);"/>
        <path d="M236.781212,14.7533333 L231.246667,49.9630303 C231.139394,50.6454545 231.666667,51.2618182 232.35697,51.2618182 L237.923636,51.2618182 C238.845455,51.2618182 239.630303,50.5909091 239.773939,49.6806061 L245.230909,15.1030303 C245.338788,14.4206061 244.811515,13.8036364 244.120606,13.8036364 L237.891515,13.8036364 C237.338182,13.8036364 236.867273,14.2066667 236.781212,14.7533333" id="Fill-7" mask="url(#mask-2)" style="fill: rgb(255, 255, 255);"/>
      </g>
    </g>
  </g>
</svg>